PathFileType	4	(X/Y/Z)	C:/Users/opensim2020/Desktop/walking_exp_matlab/subject03_walking05_straight_02.trc	
DataRate	CameraRate	NumFrames	NumMarkers	Units	OrigDataRate	OrigDataStartFrame	OrigNumFrames	
100.00	100.00	7	45	mm	100.00	1477	252	
Frame#	Time	LFHD			RFHD			LBHD			RBHD			C7			T10			CLAV			STRN			RBAK			LSHO			LUPA			LELB			LFRM			LWRA			LWRB			LFIN			RSHO			RUPA			RELB			RFRM			RWRA			RWRB			RFIN			LASI			RASI			LPSI			RPSI			LTHI			LKNE			LTIB			LANK			LHEE			LTOE			RTHI			RKNE			RTIB			RANK			RHEE			RTOE			*39			*40			*41			*42			*43			*44			
		X1	Y1	Z1	X2	Y2	Z2	X3	Y3	Z3	X4	Y4	Z4	X5	Y5	Z5	X6	Y6	Z6	X7	Y7	Z7	X8	Y8	Z8	X9	Y9	Z9	X10	Y10	Z10	X11	Y11	Z11	X12	Y12	Z12	X13	Y13	Z13	X14	Y14	Z14	X15	Y15	Z15	X16	Y16	Z16	X17	Y17	Z17	X18	Y18	Z18	X19	Y19	Z19	X20	Y20	Z20	X21	Y21	Z21	X22	Y22	Z22	X23	Y23	Z23	X24	Y24	Z24	X25	Y25	Z25	X26	Y26	Z26	X27	Y27	Z27	X28	Y28	Z28	X29	Y29	Z29	X30	Y30	Z30	X31	Y31	Z31	X32	Y32	Z32	X33	Y33	Z33	X34	Y34	Z34	X35	Y35	Z35	X36	Y36	Z36	X37	Y37	Z37	X38	Y38	Z38	X39	Y39	Z39	X40	Y40	Z40	X41	Y41	Z41	X42	Y42	Z42	X43	Y43	Z43	X44	Y44	Z44	X45	Y45	Z45	

1	0.000	1507.79749	1242.59167	1616.38306	1375.67590	1259.52454	1621.29468	1519.72034	1372.12036	1578.08960	1389.31519	1384.06494	1582.68896	1454.48071	1417.92664	1420.47375	1441.40503	1457.68835	1107.63416	1452.77026	1296.49316	1342.38904	1457.05554	1255.12415	1177.87500	1353.01953	1471.70081	1249.40833	1606.38062	1345.06433	1378.87073	1685.41931	1336.55933	1189.38599	1705.34705	1308.17004	1072.37793	1705.42957	1231.76685	969.36542	1673.61841	1157.90955	878.73083	1720.42664	1184.09851	866.66156	1713.69885	1125.26550	808.91693	1293.34448	1340.57068	1371.63208	1221.36670	1350.39209	1148.99805	1211.12891	1343.26526	1035.92017	1210.04919	1337.57239	898.99237	1247.66821	1318.14514	801.27972	1201.26453	1346.46252	798.77783	1215.66882	1336.55872	724.24634	1566.14087	1299.48132	940.88495	1330.05652	1279.22363	944.98981	1501.74011	1455.92358	966.36084	1354.25806	1441.33337	973.46234	1623.79260	1375.87354	640.72748	1611.25415	1382.60388	459.62006	1596.29199	1533.67542	329.33286	1543.29688	1674.78577	179.15729	1500.47070	1718.88647	191.32002	1507.89258	1611.72705	43.50035	1302.55322	1305.16406	643.92548	1353.14807	1266.65662	470.97055	1363.06641	1286.80664	281.42242	1428.30005	1281.14404	70.30515	1484.01453	1320.63135	39.67307	1436.80518	1138.43103	38.69211																		 
2	0.010	1507.85156	1233.36475	1617.05249	1375.76208	1250.36157	1621.96680	1519.72131	1362.87000	1578.51807	1389.26282	1374.73999	1583.01013	1454.30701	1408.63293	1420.82593	1441.23560	1448.05493	1107.95691	1452.95703	1286.88562	1342.90906	1457.28918	1245.63184	1178.31567	1352.34387	1461.52344	1249.67041	1606.28564	1335.80469	1379.37122	1684.59326	1327.96521	1189.37488	1704.12561	1301.44360	1071.78625	1703.92200	1227.17688	966.60858	1672.15588	1156.09778	873.47046	1719.12756	1182.48975	862.59436	1712.16528	1125.87451	802.32446	1293.36084	1330.16272	1372.07678	1220.73120	1339.44165	1149.76819	1210.32800	1331.82605	1036.75732	1209.68567	1324.32666	899.93439	1248.30420	1304.11926	801.74744	1201.35461	1331.99146	799.54974	1216.22778	1321.05615	725.04089	1566.38184	1289.97473	941.13513	1330.12988	1269.78003	944.75671	1501.94519	1446.65234	966.17834	1354.31421	1431.82739	973.78894	1624.67932	1360.42139	639.60492	1612.61023	1361.00195	458.39233	1598.92566	1513.20850	330.50336	1546.57629	1658.49854	184.78560	1503.58264	1702.94897	196.95258	1514.16504	1597.15039	47.66116	1302.26904	1298.52637	643.96820	1353.14063	1261.60107	470.33365	1363.17297	1283.87170	281.47409	1428.63342	1280.97571	70.34437	1484.21326	1320.55420	39.76647	1436.93359	1138.22485	38.52497	1467.96899	1318.17334	1683.37866															 
3	0.020	1507.89160	1224.22351	1617.69470	1375.79211	1241.16736	1622.56726	1519.81750	1353.71484	1578.90259	1389.27527	1365.45764	1583.25940	1454.07349	1399.29211	1421.16443	1441.13586	1438.50305	1108.14502	1453.11841	1277.46094	1343.34302	1457.74402	1236.30835	1178.79724	1351.66089	1451.58728	1249.64807	1606.42053	1326.61499	1379.59155	1683.95154	1319.53760	1188.97156	1702.89648	1294.53088	1070.67871	1702.53491	1222.65466	963.54639	1670.74341	1154.32971	868.05621	1717.76904	1181.05859	858.12885	1710.54712	1126.79626	795.50916	1293.48950	1320.12500	1372.43347	1220.05225	1328.39746	1150.09839	1209.38574	1320.26953	1037.16223	1209.07275	1311.15491	900.63031	1247.48608	1288.74316	803.46320	1201.40466	1317.28516	799.93457	1216.42126	1305.63025	725.78387	1566.74768	1280.61548	941.13251	1330.32532	1260.36963	944.04462	1502.16492	1437.50977	965.57904	1354.24792	1422.57910	973.73285	1625.29431	1345.00439	639.00708	1613.87500	1339.47266	457.81226	1600.79419	1492.57813	331.98218	1549.71899	1640.87744	189.46840	1505.98840	1685.85791	200.98544	1520.01086	1580.35803	51.09437	1301.52075	1292.49329	644.19159	1352.77771	1256.84924	469.90054	1363.26782	1280.99951	281.56369	1429.01111	1280.78467	70.34129	1484.33337	1320.46985	39.84539	1437.02673	1138.04419	38.39778																		 
4	0.030	1507.95483	1215.07092	1618.25708	1375.83984	1232.04675	1623.05884	1519.97351	1344.61719	1579.25879	1389.20862	1356.19910	1583.50366	1453.79224	1389.90527	1421.53735	1441.07764	1429.06091	1108.27783	1453.25171	1268.14380	1343.71497	1457.96985	1227.03699	1178.76416	1350.95837	1441.89209	1249.43896	1606.71802	1317.43066	1379.57544	1683.29700	1311.25195	1188.21411	1701.76892	1287.43140	1069.34863	1701.20691	1218.18835	960.16412	1669.56128	1152.75037	862.49579	1716.66016	1179.82556	853.57550	1708.93042	1128.13733	788.58386	1293.35071	1309.83081	1372.28784	1219.38806	1317.23584	1150.05688	1208.26904	1308.31787	1037.15015	1208.76978	1297.39587	900.57819	1247.62708	1274.00317	804.10773	1201.41309	1302.48071	800.00946	1216.68445	1289.38330	725.99640	1567.24048	1271.29578	941.06464	1330.61768	1251.01306	943.32452	1502.34888	1428.45947	964.68652	1354.22668	1413.59131	973.52429	1626.03516	1329.48328	639.22119	1614.95325	1318.24426	458.09320	1602.41016	1471.97571	333.60477	1552.74670	1622.17212	193.03645	1508.74512	1667.69861	203.67012	1527.17969	1561.13708	55.23663	1300.43579	1285.93567	644.12683	1352.28625	1252.15649	469.50061	1363.38464	1278.10828	281.56772	1429.32190	1280.59155	70.39381	1484.46497	1320.42517	39.93534	1437.04651	1137.89014	38.29432																		 
5	0.040	1508.03601	1205.99133	1618.77014	1375.91064	1222.65649	1623.46777	1519.68604	1335.31360	1579.46301	1389.13782	1346.84875	1583.75085	1453.58716	1380.51563	1421.96887	1441.00989	1419.72229	1108.36731	1453.46716	1258.93164	1344.08362	1458.30774	1217.93140	1178.88037	1350.43030	1432.60376	1249.41760	1607.16882	1308.37109	1379.48608	1682.75671	1303.20105	1187.33252	1700.59436	1280.08020	1067.88672	1699.84680	1213.80859	956.56842	1668.31982	1151.49475	856.75281	1715.47803	1178.86499	848.82281	1707.32202	1129.81787	781.68427	1293.32227	1299.91443	1372.09351	1218.86499	1305.90137	1149.78052	1207.32629	1296.28333	1036.95740	1208.56519	1283.70166	900.46436	1247.37927	1258.63879	804.52496	1201.41138	1287.40784	799.89117	1217.10376	1272.91785	726.39471	1567.63965	1261.82568	940.89160	1330.80847	1241.76709	942.75079	1502.72217	1419.48499	963.72552	1354.36694	1404.91528	973.26337	1626.60132	1313.68945	639.93298	1615.75439	1297.49805	459.23785	1604.29089	1451.44836	335.34070	1555.75525	1602.29358	195.28781	1511.53308	1648.61755	204.83591	1533.19922	1540.15857	57.98721	1299.73401	1280.02991	644.50311	1351.78137	1247.63940	469.32391	1363.57361	1275.18958	281.65985	1429.50659	1280.48975	70.57391	1484.56592	1320.34570	40.05639	1437.03369	1137.80078	38.22134	1466.08362	1291.97827	1681.36633															 
6	0.050	1508.11365	1196.89075	1619.15930	1375.96155	1213.57019	1623.97815	1519.88855	1326.28845	1579.75061	1389.23474	1337.70203	1584.06860	1453.43884	1371.11316	1422.41431	1441.04919	1410.59351	1108.57458	1453.62842	1249.70813	1344.31384	1458.63867	1208.69800	1179.03308	1349.79565	1423.25317	1249.33655	1607.65417	1299.30457	1379.27966	1682.23083	1295.33936	1186.42944	1699.33301	1272.59937	1066.39905	1698.55151	1209.61877	952.95166	1666.92664	1150.53955	850.88092	1714.36353	1178.23071	844.08557	1705.72095	1131.90161	774.93915	1293.34204	1290.11157	1371.73633	1218.46155	1294.49536	1149.50183	1206.57166	1283.90723	1036.69556	1207.92163	1269.52063	900.37866	1247.28040	1243.46631	805.03503	1201.36707	1272.10645	799.70685	1217.20483	1256.14185	726.74963	1567.86487	1252.49341	940.99384	1330.83276	1232.89185	942.54712	1503.21533	1410.41357	962.87836	1354.71057	1396.46765	973.14722	1627.01697	1297.40149	640.90540	1616.17957	1277.11670	460.74588	1606.27136	1430.92139	336.98944	1558.98706	1581.74426	196.54150	1514.38403	1628.56140	204.33598	1538.81799	1517.36023	60.08268	1299.82434	1273.95056	644.87036	1351.56763	1243.17053	469.36612	1363.87048	1272.34167	281.77612	1429.79395	1280.32141	70.63055	1484.68494	1320.28564	40.09173	1437.01904	1137.67700	38.16674	1464.42151	1283.24695	1681.11121															 
7	0.060	1508.24426	1187.83142	1619.45874	1376.12756	1204.24585	1624.30359	1519.60889	1317.09375	1579.79895	1389.12012	1328.44006	1584.26807	1453.37402	1361.79553	1422.84741	1441.18860	1401.51477	1108.86450	1453.80371	1240.52112	1344.48450	1458.92322	1199.79932	1179.24756	1349.56445	1414.48389	1249.80396	1608.16479	1290.39624	1379.12646	1681.51819	1287.53784	1185.50977	1697.94299	1265.02783	1065.05688	1697.17969	1205.50977	949.40387	1665.69409	1150.13843	845.30878	1713.24988	1177.92444	839.57489	1704.23767	1134.38904	768.56775	1293.38928	1280.62866	1371.50647	1218.33276	1282.90356	1149.15027	1206.02185	1271.23608	1036.42407	1207.62207	1255.30261	900.36481	1247.25110	1228.31628	805.57642	1201.33691	1256.53088	799.56042	1217.11951	1239.01379	727.09705	1567.33667	1241.91235	941.25153	1330.60901	1224.32361	942.74054	1503.97974	1401.25232	962.39972	1355.38782	1388.18408	973.28259	1627.18286	1280.75916	641.91437	1616.18823	1256.92188	462.39514	1607.17493	1409.55652	337.64005	1561.74731	1559.93005	196.12845	1517.54578	1607.78430	202.63783	1543.65881	1492.94629	61.16252	1300.86731	1267.81201	645.29663	1351.91357	1238.57385	469.54193	1364.23706	1269.85181	281.91379	1429.82495	1280.45459	70.67033	1484.90527	1320.21570	40.19857	1437.08862	1137.59607	38.16114																		 
